HIERARCHY
ROOT SpineBase
{
  OFFSET 0.000000 0.000000 0.000000
  CHANNELS 6 Xposition Yposition Zposition Zrotation Xrotation Yrotation
  JOINT SpineMid
  {
    OFFSET 0.000000 27.569250 0.000000
    CHANNELS 3 Zrotation Xrotation Yrotation
    JOINT SpineShoulder
    {
      OFFSET -0.037547 20.495599 -0.618713
      CHANNELS 3 Zrotation Xrotation Yrotation
      JOINT Neck
      {
        OFFSET -0.028506 6.784142 -0.481997
        CHANNELS 3 Zrotation Xrotation Yrotation
        JOINT Head
        {
          OFFSET -1.873933 12.203173 -0.686159
          CHANNELS 3 Zrotation Xrotation Yrotation
          End Site
          {
            OFFSET 0 0 0
          }
        }
      }
      JOINT ShoulderLeft
      {
        OFFSET -16.234127 -2.887184 3.712168
        CHANNELS 3 Zrotation Xrotation Yrotation
        JOINT ElbowLeft
        {
          OFFSET -2.480990 -26.270136 0.435956
          CHANNELS 3 Zrotation Xrotation Yrotation
          JOINT WristLeft
          {
            OFFSET -1.289233 -19.114351 -13.383231
            CHANNELS 3 Zrotation Xrotation Yrotation
            JOINT HandLeft
            {
              OFFSET -0.341668 -3.771759 -4.629721
              CHANNELS 3 Zrotation Xrotation Yrotation
              JOINT HandTipLeft
              {
                OFFSET 2.003035 -4.493384 -3.333629
                CHANNELS 3 Zrotation Xrotation Yrotation
                End Site
                {
                  OFFSET 0 0 0
                }
              }
              JOINT ThumbLeft
              {
                OFFSET -4.127979 0.449946 -2.228603
                CHANNELS 3 Zrotation Xrotation Yrotation
                End Site
                {
                  OFFSET 0 0 0
                }
              }
            }
          }
        }
      }
      JOINT ShoulderRight
      {
        OFFSET 15.412926 -2.181830 -5.245269
        CHANNELS 3 Zrotation Xrotation Yrotation
        JOINT ElbowRight
        {
          OFFSET 7.862841 -21.273147 -1.341505
          CHANNELS 3 Zrotation Xrotation Yrotation
          JOINT WristRight
          {
            OFFSET -8.687690 -16.313224 -10.011490
            CHANNELS 3 Zrotation Xrotation Yrotation
            JOINT HandRight
            {
              OFFSET -5.678144 -2.773768 -3.455077
              CHANNELS 3 Zrotation Xrotation Yrotation
              JOINT HandTipRight
              {
                OFFSET -2.568175 -4.007589 -2.273819
                CHANNELS 3 Zrotation Xrotation Yrotation
                End Site
                {
                  OFFSET 0 0 0
                }
              }
              JOINT ThumbRight
              {
                OFFSET 0.647543 -1.491958 0.126320
                CHANNELS 3 Zrotation Xrotation Yrotation
                End Site
                {
                  OFFSET 0 0 0
                }
              }
            }
          }
        }
      }
    }
  }
  JOINT HipLeft
  {
    OFFSET -7.750273 -0.172067 -1.587791
    CHANNELS 3 Zrotation Xrotation Yrotation
    JOINT KneeLeft
    {
      OFFSET -4.700891 -33.815069 3.728738
      CHANNELS 3 Zrotation Xrotation Yrotation
      JOINT AnkleLeft
      {
        OFFSET -1.888758 -36.051947 7.243199
        CHANNELS 3 Zrotation Xrotation Yrotation
        JOINT FootLeft
        {
          OFFSET -2.593146 -5.435680 -7.538982
          CHANNELS 3 Zrotation Xrotation Yrotation
          End Site
          {
            OFFSET 0 0 0
          }
        }
      }
    }
  }
  JOINT HipRight
  {
    OFFSET 7.229970 1.134754 -4.792321
    CHANNELS 3 Zrotation Xrotation Yrotation
    JOINT KneeRight
    {
      OFFSET 3.517652 -31.733296 4.628087
      CHANNELS 3 Zrotation Xrotation Yrotation
      JOINT AnkleRight
      {
        OFFSET 1.103310 -33.941600 8.878222
        CHANNELS 3 Zrotation Xrotation Yrotation
        JOINT FootRight
        {
          OFFSET -0.487214 -6.521262 -6.514510
          CHANNELS 3 Zrotation Xrotation Yrotation
          End Site
          {
            OFFSET 0 0 0
          }
        }
      }
    }
  }
}
MOTION
Frames: 6
Frame Time: 0.033333
33.347046 76.260912 380.718469 -0.000000 0.000000 12.074562 -0.000000 0.000000 -12.074562 -0.000000 0.000000 0.000000 -0.000000 0.000000 0.000000 0.000000 0.000000 0.000000 -0.000000 0.000000 0.000000 -0.000000 0.000000 0.000000 -0.000000 0.000000 0.000000 -0.000000 0.000000 0.000000 0.000000 0.000000 0.000000 0.000000 0.000000 0.000000 -0.000000 0.000000 0.000000 -0.000000 0.000000 0.000000 -0.000000 0.000000 0.000000 -0.000000 0.000000 0.000000 0.000000 0.000000 0.000000 0.000000 0.000000 0.000000 -0.000000 0.000000 -12.074562 -0.000000 0.000000 0.000000 -0.000000 0.000000 0.000000 0.000000 0.000000 0.000000 -0.000000 0.000000 -12.074562 -0.000000 0.000000 0.000000 -0.000000 0.000000 0.000000 0.000000 0.000000 0.000000
33.304100 76.360541 380.756906 -0.042242 -0.008745 12.158433 0.043137 -0.000348 -12.158436 -0.000000 0.000000 0.000000 -0.000000 0.000000 0.000000 0.000000 0.000000 0.000000 -0.000000 0.000000 0.000000 0.261894 0.977670 -0.250092 -4.628640 1.255789 5.267275 -1.597737 -4.895269 -2.320430 0.000000 0.000000 0.000000 0.000000 0.000000 0.000000 -0.000000 0.000000 0.000000 -1.042105 0.842288 0.196808 2.311774 -2.591655 1.918839 -3.718921 0.954282 -0.008388 0.000000 0.000000 0.000000 0.000000 0.000000 0.000000 0.043137 -0.000348 -12.158436 -0.000000 0.000000 0.000000 0.837708 -4.429717 1.044460 0.000000 0.000000 0.000000 0.043137 -0.000348 -12.158436 -0.000000 0.000000 0.000000 -2.462340 4.854054 2.108758 0.000000 0.000000 0.000000
33.283445 76.425724 380.800113 -0.068380 -0.014030 12.234533 0.069800 -0.000779 -12.234541 -0.000000 0.000000 0.000000 0.291399 -0.970705 -0.130100 0.000000 0.000000 0.000000 -0.000000 0.000000 0.000000 0.297128 2.203468 -0.357639 -7.841301 2.930466 8.659153 -4.399032 -9.907154 -3.726192 0.000000 0.000000 0.000000 0.000000 0.000000 0.000000 -0.000000 0.000000 0.000000 -2.112461 1.747868 0.390403 4.315562 -4.692989 3.255923 -6.951596 1.853636 0.419916 0.000000 0.000000 0.000000 0.000000 0.000000 0.000000 0.069800 -0.000779 -12.234541 -0.000000 0.000000 0.000000 1.430866 -7.176207 1.689995 0.000000 0.000000 0.000000 0.069800 -0.000779 -12.234541 -0.000000 0.000000 0.000000 -4.406981 7.904234 3.840121 0.000000 0.000000 0.000000
33.285081 76.456463 380.848089 -0.078278 -0.015828 12.304244 0.079853 -0.001217 -12.304254 -0.000000 0.000000 0.000000 0.525582 -1.289761 -0.162380 0.000000 0.000000 0.000000 -0.000000 0.000000 0.000000 0.124881 3.709121 -0.334190 -9.047553 5.070724 9.632340 -7.929731 -14.717549 -3.854684 0.000000 0.000000 0.000000 0.000000 0.000000 0.000000 -0.000000 0.000000 0.000000 -3.227601 2.725388 0.588980 5.893819 -6.212646 3.801032 -9.761013 2.366104 1.469436 0.000000 0.000000 0.000000 0.000000 0.000000 0.000000 0.503971 -0.677395 -12.160864 -0.557068 0.571638 -0.138100 1.673452 -8.046425 1.832942 0.000000 0.000000 0.000000 0.079853 -0.001217 -12.304254 0.806285 0.135837 0.214383 -6.595437 9.310039 4.921476 0.000000 0.000000 0.000000
33.309007 76.452756 380.900835 -0.071830 -0.014116 12.368707 0.073186 -0.001598 -12.368715 -0.000000 0.000000 0.000000 0.822713 -1.501761 -0.173263 0.000000 0.000000 0.000000 -1.780820 1.327751 -0.134148 1.509752 4.221056 -0.005218 -7.910155 7.366088 8.067846 -11.256738 -18.949888 -2.515682 0.000000 0.000000 0.000000 0.000000 0.000000 0.000000 -0.000000 0.000000 0.000000 -4.403377 3.784168 0.800591 6.961072 -7.074221 3.378843 -12.207387 2.226154 3.239279 0.000000 0.000000 0.000000 0.000000 0.000000 0.000000 0.447717 -0.775675 -12.213589 -0.831737 1.570349 -0.251534 1.854962 -7.884862 1.576804 0.000000 0.000000 0.000000 0.073186 -0.001598 -12.368715 0.889792 0.160558 0.236750 -7.574726 9.439291 5.778569 0.000000 0.000000 0.000000
33.355223 76.414603 380.958350 -0.048952 -0.008876 12.428886 0.049715 -0.001868 -12.428889 -0.000000 0.000000 0.000000 1.187297 -1.606709 -0.162946 0.000000 0.000000 0.000000 -3.726282 2.357874 -0.207295 2.815971 5.437778 0.466922 -4.447828 9.117382 4.296186 -13.125144 -21.915922 0.332837 0.000000 0.000000 0.000000 0.000000 0.000000 0.000000 -0.381052 0.721163 0.293226 -5.247919 4.243121 0.674475 7.492676 -7.211635 1.878384 -14.354901 1.238017 5.754537 0.000000 0.000000 0.000000 0.000000 0.000000 0.000000 0.280772 -0.812461 -12.280028 -0.767554 1.754592 -0.264440 1.441800 -5.116170 0.713959 0.000000 0.000000 0.000000 0.049715 -0.001868 -12.428889 0.893618 0.176679 0.238152 -7.968896 8.245184 6.232604 0.000000 0.000000 0.000000
